<svg width="23" height="23" viewBox="0 0 23 23" fill="none" xmlns="http://www.w3.org/2000/svg">
<g clip-path="url(#clip0_3_856)">
<path d="M23 14V22H19H18.5H0V14C0 13.7239 0.22385 13.5 0.5 13.5H18.5H19H22.5C22.7762 13.5 23 13.7239 23 14Z" fill="#B4BDBF"/>
<path d="M20 13.5L18.5 22V23H4.5V22L3 13.5H4.5H18.5H20Z" fill="#9DA7A8"/>
<path d="M18.5 5V23H4.5V5C4.5 4.72385 4.72385 4.5 5 4.5H18C18.2762 4.5 18.5 4.72385 18.5 5Z" fill="#D5F3FF"/>
<path d="M8 10H9.5V11.5H8V10Z" fill="#A2A9AA"/>
<path d="M10.75 10H12.25V11.5H10.75V10Z" fill="#A2A9AA"/>
<path d="M15 10V11.5H13.5V10H15Z" fill="#A2A9AA"/>
<path d="M8 13H9.5V14.5H8V13Z" fill="#A2A9AA"/>
<path d="M10.75 13H12.25V14.5H10.75V13Z" fill="#A2A9AA"/>
<path d="M13.5 13H15V14.5H13.5V13Z" fill="#A2A9AA"/>
<path d="M15 23H8V16H15V23Z" fill="#114CA5"/>
<path d="M15 23H11.5V16H15V23Z" fill="#002B6B"/>
<path d="M23 22.5C23 22.7762 22.7762 23 22.5 23H0.5C0.22385 23 0 22.7762 0 22.5V21.5H23V22.5Z" fill="#9DA7A8"/>
<path d="M15.9722 4.5C15.7234 6.7499 13.8162 8.5 11.5 8.5C9.18372 8.5 7.27652 6.7499 7.02777 4.5H15.9722Z" fill="#B4BDBF"/>
<path d="M11.5 8C9.29085 8 7.5 6.20915 7.5 4C7.5 1.79085 9.29085 0 11.5 0C13.7092 0 15.5 1.79085 15.5 4C15.5 6.20915 13.7092 8 11.5 8Z" fill="#DAEDE3"/>
<path d="M13.75 4C13.75 4.4142 13.4142 4.75 13 4.75H12.25V5.5C12.25 5.9142 11.9142 6.25 11.5 6.25C11.0858 6.25 10.75 5.9142 10.75 5.5V4.75H10C9.5858 4.75 9.25 4.4142 9.25 4C9.25 3.5858 9.5858 3.25 10 3.25H10.75V2.5C10.75 2.0858 11.0858 1.75 11.5 1.75C11.9142 1.75 12.25 2.0858 12.25 2.5V3.25H13C13.4142 3.25 13.75 3.5858 13.75 4Z" fill="#C6524A"/>
<path d="M10.75 4.7615V4.75H10C9.5858 4.75 9.25 4.4142 9.25 4C9.25 3.5858 9.5858 3.25 10 3.25H10.75V2.5C10.75 2.0858 11.0858 1.75 11.5 1.75C11.9142 1.75 12.25 2.0858 12.25 2.5V3.25H12.2615L10.75 4.7615Z" fill="#D3625F"/>
</g>
<defs>
<clipPath id="clip0_3_856">
<rect width="23" height="23" fill="white"/>
</clipPath>
</defs>
</svg>
