<svg width="15" height="15" viewBox="0 0 15 15" fill="none" xmlns="http://www.w3.org/2000/svg">
<path d="M7.5 0C6.01664 0 4.5666 0.439867 3.33323 1.26398C2.09986 2.08809 1.13856 3.25943 0.570907 4.62987C0.00324961 6.00032 -0.145275 7.50832 0.144114 8.96318C0.433503 10.418 1.14781 11.7544 2.1967 12.8033C3.2456 13.8522 4.58197 14.5665 6.03683 14.8559C7.49168 15.1453 8.99968 14.9968 10.3701 14.4291C11.7406 13.8614 12.9119 12.9001 13.736 11.6668C14.5601 10.4334 15 8.98336 15 7.5C15 5.51088 14.2098 3.60322 12.8033 2.1967C11.3968 0.790176 9.48913 0 7.5 0V0ZM7.5 13.125C6.38748 13.125 5.29995 12.7951 4.37492 12.177C3.44989 11.5589 2.72892 10.6804 2.30318 9.65259C1.87744 8.62476 1.76604 7.49376 1.98309 6.40262C2.20013 5.31147 2.73586 4.30919 3.52253 3.52252C4.3092 2.73585 5.31148 2.20012 6.40262 1.98308C7.49376 1.76604 8.62476 1.87743 9.6526 2.30318C10.6804 2.72892 11.5589 3.44989 12.177 4.37492C12.7951 5.29994 13.125 6.38748 13.125 7.5C13.1234 8.99135 12.5302 10.4212 11.4757 11.4757C10.4212 12.5302 8.99135 13.1234 7.5 13.125V13.125Z" fill="#404040"/>
<path d="M9.38438 7.5H7.96875C7.84443 7.5 7.7252 7.45061 7.63729 7.36271C7.54939 7.2748 7.5 7.15557 7.5 7.03125V5.61562C7.50006 5.49372 7.4761 5.37301 7.42948 5.26037C7.38286 5.14774 7.31449 5.0454 7.2283 4.9592C7.1421 4.87301 7.03976 4.80464 6.92713 4.75802C6.81449 4.7114 6.69378 4.68744 6.57188 4.6875H6.55312C6.43122 4.68744 6.31051 4.7114 6.19787 4.75802C6.08524 4.80464 5.9829 4.87301 5.8967 4.9592C5.81051 5.0454 5.74214 5.14774 5.69552 5.26037C5.6489 5.37301 5.62494 5.49372 5.625 5.61562V8.44688C5.62494 8.56878 5.6489 8.68949 5.69552 8.80213C5.74214 8.91476 5.81051 9.0171 5.8967 9.1033C5.9829 9.18949 6.08524 9.25785 6.19787 9.30448C6.31051 9.3511 6.43122 9.37506 6.55312 9.375H9.38438C9.50628 9.37506 9.62699 9.3511 9.73963 9.30448C9.85226 9.25785 9.9546 9.18949 10.0408 9.1033C10.127 9.0171 10.1954 8.91476 10.242 8.80213C10.2886 8.68949 10.3126 8.56878 10.3125 8.44688V8.42813C10.3126 8.30622 10.2886 8.18551 10.242 8.07287C10.1954 7.96024 10.127 7.8579 10.0408 7.7717C9.9546 7.68551 9.85226 7.61715 9.73963 7.57052C9.62699 7.5239 9.50628 7.49994 9.38438 7.5V7.5Z" fill="#404040"/>
</svg>
